<svg xmlns="http://www.w3.org/2000/svg" xmlns:svg="http://www.w3.org/2000/svg" xmlns:xlink="http://www.w3.org/1999/xlink" id="svg4249" width="141.874" height="150.136" version="1.1"><defs id="defs4251"><linearGradient id="linearGradient5059"><stop style="stop-color:#d3d3d3;stop-opacity:1" id="stop5061" offset="0"/><stop style="stop-color:#ededed;stop-opacity:1" id="stop5063" offset="1"/></linearGradient><linearGradient id="linearGradient4463-7-9-5-6" x1="417.092" x2="415.443" y1="-279.726" y2="-270.978" gradientTransform="matrix(-0.82609832,-0.56352604,-0.56352604,0.82609832,546.68317,882.70857)" gradientUnits="userSpaceOnUse" xlink:href="#linearGradient4457-1-5-04-7"/><linearGradient id="linearGradient4457-1-5-04-7"><stop style="stop-color:gray;stop-opacity:1" id="stop4459-5-8-3-5" offset="0"/><stop style="stop-color:#525252;stop-opacity:0" id="stop4461-8-1-0-7" offset="1"/></linearGradient><linearGradient id="linearGradient4338-1-0-9" x1="456.855" x2="456.851" y1="-233.567" y2="-232.585" gradientTransform="translate(-147.08674,678.19381)" gradientUnits="userSpaceOnUse" xlink:href="#linearGradient4332-6-98-7"/><linearGradient id="linearGradient4332-6-98-7"><stop style="stop-color:#484848;stop-opacity:1" id="stop4334-8-6-0" offset="0"/><stop style="stop-color:#a1a1a1;stop-opacity:1" id="stop4336-5-8-2" offset="1"/></linearGradient><linearGradient id="linearGradient5981-7" x1="587.12" x2="587.13" y1="310.615" y2="308.2" gradientTransform="translate(-246.05912,133.62266)" gradientUnits="userSpaceOnUse" xlink:href="#linearGradient5972-2"/><linearGradient id="linearGradient5972-2"><stop style="stop-color:#2e2e2e;stop-opacity:1" id="stop5974-3" offset="0"/><stop style="stop-color:#222;stop-opacity:1" id="stop5976-3" offset="1"/></linearGradient><linearGradient id="linearGradient4463-5-0-8" x1="414.583" x2="419.009" y1="-277.762" y2="-271.552" gradientTransform="translate(-148.11273,672.40794)" gradientUnits="userSpaceOnUse" xlink:href="#linearGradient4457-5-5-7"/><linearGradient id="linearGradient4457-5-5-7"><stop style="stop-color:#525252;stop-opacity:1" id="stop4459-7-9-9" offset="0"/><stop style="stop-color:#525252;stop-opacity:0" id="stop4461-3-3-3" offset="1"/></linearGradient><linearGradient id="linearGradient4338-1-7-2-3" x1="456.855" x2="456.851" y1="-233.567" y2="-232.585" gradientTransform="translate(-147.56678,672.98826)" gradientUnits="userSpaceOnUse" xlink:href="#linearGradient4332-6-9-3-6"/><linearGradient id="linearGradient4332-6-9-3-6"><stop style="stop-color:#484848;stop-opacity:1" id="stop4334-8-1-4-5" offset="0"/><stop style="stop-color:#a1a1a1;stop-opacity:1" id="stop4336-5-2-9-4" offset="1"/></linearGradient><linearGradient id="linearGradient4338-1-7-9" x1="456.855" x2="456.851" y1="-233.567" y2="-232.585" gradientTransform="translate(-147.85011,674.3595)" gradientUnits="userSpaceOnUse" xlink:href="#linearGradient4332-6-9-1"/><linearGradient id="linearGradient4332-6-9-1"><stop style="stop-color:#484848;stop-opacity:1" id="stop4334-8-1-1" offset="0"/><stop style="stop-color:#a1a1a1;stop-opacity:1" id="stop4336-5-2-7" offset="1"/></linearGradient><linearGradient id="linearGradient4120-2-7-5-7-9" x1="128.211" x2="124.463" y1="-282.507" y2="-262.415" gradientTransform="matrix(-1,0,0,1,401.50709,715.60764)" gradientUnits="userSpaceOnUse" xlink:href="#linearGradient4122-3-9-3-8-8"/><linearGradient id="linearGradient4122-3-9-3-8-8"><stop id="stop4124-0-7-6-7-2" offset="0" style="stop-color:#ffe1b6;stop-opacity:.87596899"/><stop id="stop4126-2-1-4-0-9" offset="1" style="stop-color:#fff;stop-opacity:0"/></linearGradient><linearGradient id="linearGradient4367-2-1-3" x1="501.637" x2="482.651" y1="-241.988" y2="-261.962" gradientTransform="matrix(0.99827566,0,0,0.99698553,-149.1245,671.65339)" gradientUnits="userSpaceOnUse" xlink:href="#linearGradient4386-8-5-51"/><linearGradient id="linearGradient4386-8-5-51"><stop style="stop-color:#fff;stop-opacity:.453125" id="stop4388-9-1-2" offset="0"/><stop id="stop4390-7-6-7" offset="1" style="stop-color:#fff;stop-opacity:0"/></linearGradient><linearGradient id="linearGradient4120-8-2-73-9" x1="128.211" x2="124.463" y1="-282.507" y2="-262.415" gradientTransform="matrix(0.93969262,-0.34202014,0.34202014,0.93969262,323.66238,740.82154)" gradientUnits="userSpaceOnUse" xlink:href="#linearGradient4122-5-3-6-4"/><linearGradient id="linearGradient4122-5-3-6-4"><stop id="stop4124-2-5-9-5" offset="0" style="stop-color:#ffe1b6;stop-opacity:.87596899"/><stop id="stop4126-29-7-6-5" offset="1" style="stop-color:#fff;stop-opacity:0"/></linearGradient><linearGradient id="linearGradient4348-1-4-3" x1="432.516" x2="469.906" y1="-316.124" y2="-267.274" gradientTransform="matrix(1.0006158,0,0,1.0004292,-147.83187,674.96543)" gradientUnits="userSpaceOnUse" xlink:href="#linearGradient4342-5-3-3"/><linearGradient id="linearGradient4342-5-3-3"><stop id="stop4350-1-3-1" offset="0" style="stop-color:#4040ff;stop-opacity:1"/><stop style="stop-color:#0000b9;stop-opacity:1" id="stop4346-3-0-43" offset="1"/></linearGradient><linearGradient id="linearGradient4065-07-4-8-5" x1="112.541" x2="131.899" y1="-244.541" y2="-279.253" gradientTransform="matrix(0.93969262,-0.34202014,0.34202014,0.93969262,323.66238,740.82154)" gradientUnits="userSpaceOnUse" xlink:href="#linearGradient4059-3-8-7-4"/><linearGradient id="linearGradient4059-3-8-7-4"><stop style="stop-color:#f7da32;stop-opacity:1" id="stop4061-1-7-3-8" offset="0"/><stop style="stop-color:#f8a42b;stop-opacity:1" id="stop4063-4-2-1-4" offset="1"/></linearGradient><linearGradient id="linearGradient5944-5" x1="581.869" x2="581.87" y1="305.204" y2="311.61" gradientTransform="matrix(1.0025648,0,0,1.1059972,-252.00581,100.48294)" gradientUnits="userSpaceOnUse" xlink:href="#linearGradient5987-5"/><linearGradient id="linearGradient5987-5"><stop style="stop-color:#2c2c2c;stop-opacity:1" id="stop5989-2" offset="0"/><stop id="stop5991-1" offset=".428" style="stop-color:#2c2c2c;stop-opacity:1"/><stop style="stop-color:#2c2c2c;stop-opacity:1" id="stop5993-7" offset=".43"/><stop id="stop5997-7" offset=".656" style="stop-color:#2c2c2c;stop-opacity:1"/><stop style="stop-color:#2c2c2c;stop-opacity:1" id="stop5999-3" offset=".658"/><stop style="stop-color:#424242;stop-opacity:1" id="stop5995-6" offset="1"/></linearGradient><linearGradient id="linearGradient4085-3-8-5-8" x1="90.589" x2="91.455" y1="-354.454" y2="-374.322" gradientUnits="userSpaceOnUse" xlink:href="#linearGradient4079-3-6-7-3"/><linearGradient id="linearGradient4079-3-6-7-3"><stop style="stop-color:#fff;stop-opacity:0" id="stop4081-9-2-2-4" offset="0"/><stop style="stop-color:#fff;stop-opacity:.48062015" id="stop4083-3-4-6-6" offset="1"/></linearGradient><linearGradient id="linearGradient4148-6-5-0-6" x1="112.541" x2="131.899" y1="-244.541" y2="-279.253" gradientTransform="matrix(-1,0,0,1,401.50709,715.60764)" gradientUnits="userSpaceOnUse" xlink:href="#linearGradient4059-0-6-4-8-2"/><linearGradient id="linearGradient4059-0-6-4-8-2"><stop style="stop-color:#f7da32;stop-opacity:1" id="stop4061-6-8-8-8-6" offset="0"/><stop style="stop-color:#f8a42b;stop-opacity:1" id="stop4063-7-8-0-5-9" offset="1"/></linearGradient><linearGradient id="linearGradient4318-5-5-54" x1="423.936" x2="494.409" y1="-314.382" y2="-239.822" gradientTransform="matrix(0.99929629,0,0,1.0000612,-147.23825,674.86939)" gradientUnits="userSpaceOnUse" xlink:href="#linearGradient4312-5-6-8"/><linearGradient id="linearGradient4312-5-6-8"><stop style="stop-color:#fff;stop-opacity:1" id="stop4314-6-8-8" offset="0"/><stop style="stop-color:#c1c1c1;stop-opacity:1" id="stop4316-2-4-2" offset="1"/></linearGradient><linearGradient id="linearGradient5065" x1="314.765" x2="332.939" y1="374.117" y2="391.441" gradientUnits="userSpaceOnUse" xlink:href="#linearGradient5059"/></defs><metadata id="metadata4254"/><g id="layer1" transform="translate(-243.34889,-328.84772)"><path style="fill:#fff;fill-opacity:1;stroke:none" id="path4087-7-0-4-1-9" d="m 303.19496,392.60708 c -8.39806,8.82302 -10.04745,21.54425 -12.79311,32.97158 -1.29697,4.94804 -1.92812,10.20833 -0.1269,15.12696 2.08287,6.70654 7.15391,13.39974 14.5529,13.96999 6.37335,0.73954 12.88053,1.04374 19.26418,0.28908 8.23595,-2.07272 13.80819,-10.69183 13.15485,-19.17166 -0.40705,-14.30321 -4.80814,-28.16524 -10.34881,-41.2005 -2.17866,-4.9691 -7.97338,-5.69225 -12.4156,-7.45952 -4.48895,-0.93689 -8.57602,2.15906 -11.28751,5.47407 z"/><path style="fill:#000100;fill-opacity:1;stroke:#000;stroke-width:1px;stroke-linecap:butt;stroke-linejoin:miter;stroke-opacity:1" id="path3844-8-9-2-7-4" d="m 286.3284,361.64944 c -2.33435,7.05093 -4.17567,14.50136 -5.10808,23.98268 -0.93241,9.48132 -1.90738,23.10721 -2.93927,32.52657 -1.03189,9.41936 -3.80574,15.88471 -6.97756,22.8795 -3.17182,6.99479 -3.53963,16.14307 2.14751,21.27908 5.68714,5.13601 14.97278,8.64839 20.46677,3.91733 5.49399,-4.73106 10.17769,-5.03718 16.88229,-5.25536 6.7046,-0.21818 15.83256,-1.19244 21.9894,1.05401 6.15684,2.24645 11.89125,7.04122 16.77599,1.60561 4.88474,-5.43561 7.27942,-9.64506 3.80978,-19.93661 -3.46964,-10.29155 -17.82388,-26.85614 -18.27815,-38.92649 -0.45427,-12.07035 1.94602,-16.29043 2.3228,-27.40614 0.37678,-11.11571 -4.76829,-29.67321 -11.7134,-36.68119 -6.94511,-7.00798 -10.13721,-6.35857 -16.37115,-6.41916 -6.23394,-0.0606 -12.86696,2.66845 -15.85081,8.6601 -2.98385,5.99165 -4.82177,11.66914 -7.15612,18.72007 z"/><path style="fill:#fff;fill-opacity:1;stroke:none" id="path4087-7-0-4-7" d="m 302.91163,393.97834 c -8.39806,8.82302 -10.04745,21.54425 -12.79311,32.97158 -1.29697,4.94804 -1.92812,10.20833 -0.1269,15.12695 2.08287,6.70653 7.15391,13.39973 14.5529,13.96998 6.37335,0.73954 12.88053,1.04374 19.26418,0.28908 8.23595,-2.07272 13.80819,-10.69183 13.15485,-19.17164 -0.40705,-14.30321 -4.80814,-28.16524 -10.34881,-41.2005 -2.17866,-4.9691 -7.97338,-5.69225 -12.4156,-7.45952 -4.48895,-0.93689 -8.57602,2.15906 -11.28751,5.47407 z"/><path style="fill:#fff;fill-opacity:1;stroke:none" id="path4087-7-0-1-3" d="m 302.92501,395.06263 c -8.39806,8.82302 -10.04745,21.54425 -12.79311,32.97158 -1.29697,4.94804 -1.92812,10.20833 -0.1269,15.12695 2.08287,6.70655 7.15391,13.39975 14.5529,13.97 6.37335,0.73954 12.88053,1.04374 19.26418,0.28908 8.23595,-2.07272 13.80819,-10.69184 13.15485,-19.17166 -0.40705,-14.30321 -4.80814,-28.16524 -10.34881,-41.2005 -2.17866,-4.9691 -7.97338,-5.69225 -12.4156,-7.45952 -4.48895,-0.93689 -8.57602,2.15906 -11.28751,5.47407 z"/><rect style="fill:url(#linearGradient4318-5-5-54);fill-opacity:1;stroke:#b1b1b1;stroke-width:1.5;stroke-miterlimit:4;stroke-opacity:1;stroke-dasharray:none" id="rect3836-9-4-9-8-1" width="89" height="112" x="269.099" y="346.234" rx="8.994" ry="9.001"/><path style="fill:url(#linearGradient4148-6-5-0-6);fill-opacity:1;stroke:#de9225;stroke-width:1.5;stroke-linecap:butt;stroke-linejoin:miter;stroke-miterlimit:4;stroke-opacity:1;stroke-dasharray:none" id="path3049-8-5-1-0-7-1-8" d="m 266.30964,428.69549 c -2.45518,4.77177 -3.96809,8.16483 -10.02023,8.57994 -5.17841,0.35518 -7.4668,4.04526 -5.49955,9.21413 1.64026,4.30971 -2.45451,9.35951 -1.56215,13.7639 0.98426,4.85799 8.62838,3.96197 12.91808,5.27828 6.49146,1.99192 13.42478,2.75962 19.44553,6.08763 4.54358,2.51148 11.41694,-0.55289 13.82162,-5.43429 1.66106,-3.37188 0.9132,-7.42746 -1.38056,-10.64756 -6.43312,-9.03116 -11.00518,-18.64749 -17.69399,-26.97599 -0.93803,-1.16798 -2.17093,-1.74662 -3.59563,-2.12706 -1.81283,-0.48408 -5.57466,0.59254 -6.43312,2.26102 z"/><path style="fill:url(#linearGradient4085-3-8-5-8);fill-opacity:1;stroke:none" id="path4075-2-6-5-1" d="m 103.84104,-356.54465 a 14.460939,17.731192 0 0 1 -14.460936,17.73119 14.460939,17.731192 0 0 1 -14.460939,-17.73119 14.460939,17.731192 0 0 1 14.460939,-17.73119 14.460939,17.731192 0 0 1 14.460936,17.73119 z" transform="translate(218.11416,711.60607)"/><path style="fill:url(#linearGradient5944-5);fill-opacity:1;stroke:#959595;stroke-width:1.5;stroke-linejoin:round;stroke-miterlimit:4;stroke-opacity:1;stroke-dasharray:none" id="rect4320-9-2-3-6" d="m 340.55914,439.78802 -0.0552,3.37306 -26.36535,0.033 0.0692,-3.42049 z"/><path style="fill:url(#linearGradient4065-07-4-8-5);fill-opacity:1;stroke:#de9225;stroke-width:1.5;stroke-linecap:butt;stroke-linejoin:miter;stroke-miterlimit:4;stroke-opacity:1;stroke-dasharray:none" id="path3049-8-5-11-1-7-0" d="m 352.57668,424.97204 c 3.93916,3.64427 6.52133,6.31528 12.35046,4.6354 4.98759,-1.43736 8.40006,1.24751 8.3193,6.77747 -0.0673,4.61081 5.50763,7.95557 6.17548,12.39955 0.73662,4.90166 -6.75296,6.67412 -10.33375,9.37821 -5.4187,4.092 -11.67132,7.18474 -16.19073,12.37126 -3.41059,3.91402 -10.91753,3.38528 -14.84673,-0.37929 -2.71414,-2.60041 -3.39847,-6.6672 -2.34438,-10.47761 2.95632,-10.68677 3.96367,-21.2869 7.40058,-31.40084 0.48198,-1.41837 1.44262,-2.38379 2.65128,-3.22856 1.53794,-1.07491 5.44115,-1.34984 6.81849,-0.0756 z"/><rect style="fill:url(#linearGradient4348-1-4-3);fill-opacity:1;stroke:url(#linearGradient5065);stroke-width:1.5;stroke-miterlimit:4;stroke-opacity:1;stroke-dasharray:none" id="rect3842-1-5-9-6-6" width="68.999" height="68.999" x="279.099" y="356.234" rx="12.007" ry="12.005"/><path style="opacity:.7;fill:url(#linearGradient4120-8-2-73-9);fill-opacity:1;stroke:none" id="path4097-8-4-3-9" d="m 341.24567,445.49797 c 0.54546,-3.2791 1.34004,-6.53316 2.44709,-9.66755 1.08059,-3.05948 1.00674,-7.76717 4.06776,-8.84347 3.40408,-1.19694 6.25163,3.7237 9.68322,4.83926 2.86151,0.93024 7.32675,-1.07832 8.9039,1.48413 2.54803,4.13982 -2.37884,9.47467 -4.33995,13.92266 -0.83281,1.88891 -1.45646,4.12888 -3.12195,5.34858 -3.20195,2.3449 -7.68973,3.20616 -11.61478,2.61858 -2.47348,-0.37027 -5.34919,-1.50867 -6.51532,-3.72121 -0.93267,-1.7696 0.16181,-4.00776 0.49003,-5.98098 z"/><rect style="fill:url(#linearGradient4367-2-1-3);fill-opacity:1;stroke:none" id="rect3842-1-5-4-9-3-1" width="67" height="65" x="278.599" y="357.734" rx="11.979" ry="11.964"/><path style="opacity:.7;fill:url(#linearGradient4120-2-7-5-7-9);fill-opacity:1;stroke:none" id="path4097-7-0-8-6-8" d="m 283.97758,444.10813 c -1.63408,-2.89479 -3.4937,-5.68084 -5.60601,-8.24757 -2.06183,-2.50539 -3.60256,-6.95443 -6.84709,-6.91889 -3.60815,0.0395 -4.60101,5.63729 -7.44411,7.85925 -2.37078,1.85283 -7.2537,1.4926 -7.85933,4.43994 -0.97845,4.76165 5.47591,8.08968 8.84006,11.59869 1.42863,1.49015 2.78078,3.38174 4.76299,3.95825 3.81086,1.10835 8.32256,0.38276 11.80992,-1.51182 2.19767,-1.19392 4.51059,-3.24722 4.84966,-5.72517 0.27119,-1.98187 -1.52278,-3.71072 -2.50609,-5.45268 z"/><flowRoot id="flowRoot4019-8-1-5-8" transform="translate(482.22388,538.05132)" xml:space="preserve" style="font-style:normal;font-variant:normal;font-weight:500;font-stretch:normal;font-size:16px;line-height:125%;font-family:TlwgMono;-inkscape-font-specification:'TlwgMono Medium';text-align:center;letter-spacing:0;word-spacing:0;text-anchor:middle;fill:#000;fill-opacity:1;stroke:none"><flowRegion id="flowRegion4021-2-2-2-8"><rect id="rect4023-3-4-9-8" width="87.56" height="71.279" x="-198.892" y="-167.196" style="font-style:normal;font-variant:normal;font-weight:500;font-stretch:normal;font-size:16px;font-family:TlwgMono;-inkscape-font-specification:'TlwgMono Medium';text-align:center;text-anchor:middle"/></flowRegion><flowPara style="font-style:normal;font-variant:normal;font-weight:700;font-stretch:normal;font-size:16px;font-family:'Nimbus Mono L';-inkscape-font-specification:'Nimbus Mono L Bold';text-align:start;text-anchor:start;fill:#fff;fill-opacity:1" id="flowPara4037-6-8-8-2">$ dar</flowPara><flowPara style="font-style:normal;font-variant:normal;font-weight:700;font-stretch:normal;font-size:16px;font-family:'Nimbus Mono L';-inkscape-font-specification:'Nimbus Mono L Bold';text-align:start;text-anchor:start;fill:#fff;fill-opacity:1" id="flowPara4482">ling</flowPara></flowRoot><path style="fill:#000;fill-opacity:1;stroke:#000;stroke-width:1px;stroke-linecap:butt;stroke-linejoin:miter;stroke-opacity:1" id="path4432-8-1-9" d="m 265.88829,391.09989 c -2.07292,0.50409 -2.61736,3.62172 -2.81956,5.74545 -0.20468,2.14984 -0.33025,5.52923 1.70541,6.2502 3.39889,1.20379 8.75604,-2.71165 8.78097,-6.31733 0.022,-3.18013 -4.57667,-6.42978 -7.66682,-5.67832 z"/><rect style="opacity:0;fill:url(#linearGradient4338-1-7-9);fill-opacity:1;stroke:none" id="rect4330-3-6-1" width="48.712" height="1.12" x="283.519" y="440.838" ry=".537"/><rect style="opacity:0;fill:url(#linearGradient4338-1-7-2-3);fill-opacity:1;stroke:none" id="rect4330-3-6-7-1" width="48.712" height="1.12" x="283.803" y="439.467" ry=".537"/><path style="fill:url(#linearGradient4463-5-0-8);fill-opacity:1;stroke:none" id="path4432-5-3-5-2" d="m 266.64745,392.08526 c -1.97574,0.48395 -2.75872,3.35333 -2.87209,5.38431 -0.0857,1.53467 0.21259,3.91281 1.70396,4.2848 2.8965,0.72248 6.98378,-2.81149 6.83001,-5.79277 -0.11782,-2.2842 -3.44032,-4.4205 -5.66188,-3.87634 z"/><path style="opacity:0;fill:url(#linearGradient5981-7);fill-opacity:1;stroke:none" id="rect5970-7" d="m 319.25796,441.65899 30.97754,0 0.0444,2.82214 -9.51371,-0.0244 -0.0244,-1.36607 -21.48378,0 0,0 z"/><rect style="opacity:0;fill:url(#linearGradient4338-1-0-9);fill-opacity:1;stroke:none" id="rect4330-3-7-1" width="48.712" height="1.12" x="284.283" y="444.672" ry=".537"/><path style="fill:#000;fill-opacity:1;stroke:#000;stroke-width:1px;stroke-linecap:butt;stroke-linejoin:miter;stroke-opacity:1" id="path4432-2-9-6-9" d="m 363.2021,417.0202 c 1.42833,1.58452 0.12123,4.46679 -0.90847,6.3352 -1.04237,1.89133 -2.84303,4.7538 -4.93091,4.20227 -3.48619,-0.92082 -5.70529,-7.17433 -3.69397,-10.167 1.7739,-2.6395 7.40414,-2.73262 9.53344,-0.37039 z"/><path style="fill:url(#linearGradient4463-7-9-5-6);fill-opacity:1;stroke:none" id="path4432-5-8-0-7-6" d="m 360.14959,424.61645 c -1.02961,0.91999 -2.97419,1.43475 -4.09444,0.62758 -2.0546,-1.4804 -2.88973,-5.52866 -1.28501,-7.4877 1.54103,-1.88128 5.78769,-2.11616 7.2927,-0.20594 1.51014,1.91674 -0.0936,5.44019 -1.91325,7.06606 z"/></g></svg>